<?xml version="1.0" encoding="UTF-8" standalone="no"?>
<svg width="53px" height="34px" viewBox="0 0 53 34" version="1.1" xmlns="http://www.w3.org/2000/svg" xmlns:xlink="http://www.w3.org/1999/xlink" xmlns:sketch="http://www.bohemiancoding.com/sketch/ns">
    <!-- Generator: Sketch 3.2.2 (9983) - http://www.bohemiancoding.com/sketch -->
    <title>bird_2</title>
    <desc>Created with Sketch.</desc>
    <defs/>
    <g id="Page-1" stroke="none" stroke-width="1" fill="none" fill-rule="evenodd" sketch:type="MSPage">
        <g id="animals" sketch:type="MSArtboardGroup" transform="translate(-100.000000, 0.000000)" fill="#FFAA33">
            <path d="M145.071446,12.5246145 C146.223726,12.5246145 147.158114,11.7559048 147.158114,10.8073918 L147.158114,5.2981372 L151.330469,4.06779762 L151.330469,7.40527051 C151.196004,7.38304762 151.056631,7.37092605 150.913332,7.37092605 C149.761051,7.37092605 148.826663,8.13963576 148.826663,9.08915892 C148.826663,10.0376719 149.761051,10.8063817 150.913332,10.8063817 C152.065612,10.8063817 153,10.0376719 153,9.08915892 L153,0 L145.488583,2.21723759 L145.488583,9.12350337 C145.354118,9.10027036 145.213763,9.08915892 145.071446,9.08915892 C143.919165,9.08915892 142.984777,9.85786862 142.984777,10.8073918 C142.984777,11.7559048 143.919165,12.5246145 145.071446,12.5246145 Z M132.551436,12.5246145 C131.629808,12.5246145 130.881905,11.7548947 130.881905,10.8063817 C130.881905,9.85786862 131.629808,9.08814879 132.551436,9.08814879 C133.473064,9.08814879 134.220967,9.85786862 134.220967,10.8063817 C134.220967,11.7548947 133.473064,12.5246145 132.551436,12.5246145 Z M140.898109,6.51130455 L132.551436,6.51130455 C131.399156,6.51130455 130.355821,6.99212692 129.601048,7.76992781 L120.806811,16.8196916 L100,16.8196916 L118.780014,27.98669 L111.821182,26.0674411 L104.113465,34 L128.3781,34 C132.988203,34 136.724773,30.1544312 136.724773,25.4098458 L136.724773,15.1014587 L140.898109,15.1014587 L136.724773,10.8063817 L140.898109,6.51130455" id="bird_2" sketch:type="MSShapeGroup"/>
        </g>
    </g>
</svg>