<?xml version="1.0" encoding="UTF-8" standalone="no"?>
<svg width="39px" height="34px" viewBox="0 0 39 34" version="1.1" xmlns="http://www.w3.org/2000/svg" xmlns:xlink="http://www.w3.org/1999/xlink" xmlns:sketch="http://www.bohemiancoding.com/sketch/ns">
    <!-- Generator: Sketch 3.2.2 (9983) - http://www.bohemiancoding.com/sketch -->
    <title>group</title>
    <desc>Created with Sketch.</desc>
    <defs/>
    <g id="Page-1" stroke="none" stroke-width="1" fill="none" fill-rule="evenodd" sketch:type="MSPage">
        <g id="people" sketch:type="MSArtboardGroup" transform="translate(-287.000000, -100.000000)" fill="#FFAA33">
            <path d="M294.671514,108.680344 L296.144257,108.680344 L296.144257,115.191453 L295.407453,115.914532 L294.671514,115.191453 L294.671514,108.680344 L294.671514,108.680344 Z M301.227431,102.946757 L301.114009,102.531625 L302.770305,102.531625 C303.13914,101.084618 303.50711,100 304.243049,100 L307.188536,100 C307.924475,100 308.292444,101.084618 308.661279,102.531625 L310.317575,102.531625 L310.204154,102.946757 C310.099391,103.332116 309.741811,103.617094 309.315832,103.617094 L308.707167,103.617094 C308.796346,103.902922 308.844831,104.205765 308.844831,104.520516 C308.844831,106.219325 307.44395,107.595727 305.715792,107.595727 C303.987634,107.595727 302.586753,106.219325 302.586753,104.520516 C302.586753,104.205765 302.635238,103.902922 302.724417,103.617094 L302.114886,103.617094 C301.689773,103.617094 301.332194,103.332116 301.227431,102.946757 L301.227431,102.946757 Z M292.278414,104.520516 C292.278414,102.822558 293.680161,101.446157 295.408318,101.446157 C297.136476,101.446157 298.537358,102.822558 298.537358,104.520516 C298.537358,106.219325 297.136476,107.595727 295.408318,107.595727 C293.680161,107.595727 292.278414,106.219325 292.278414,104.520516 L292.278414,104.520516 Z M291.358057,115.780124 L289.918214,113.929894 L291.358057,112.847828 L291.358057,115.780124 L291.358057,115.780124 Z M324.299548,120.514161 L326,119.822558 L321.773979,109.797288 C321.49692,109.141413 320.840635,108.680344 320.073527,108.680344 L307.556505,108.680344 L305.715792,116.638461 L303.875079,108.680344 L297.248166,108.680344 L297.248166,116.638461 L293.56674,116.638461 L293.56674,108.680344 L292.094862,108.680344 C291.585765,108.680344 291.12602,108.882806 290.792683,109.210318 L287.538967,112.407176 C286.820344,113.113241 286.820344,114.259107 287.538967,114.965172 L291.373642,118.732836 C291.548535,122.974329 293.19877,134 293.19877,134 L295.039483,134 L295.039483,120.965873 C295.160697,120.97438 295.283642,120.978633 295.407453,120.978633 C295.532129,120.978633 295.655074,120.97438 295.776288,120.965873 L295.776288,134 L297.617001,134 C297.617001,134 299.456848,121.705114 299.457714,118.084618 L299.457714,111.574359 L301.666397,111.574359 L301.666397,118.084618 C301.666397,121.702562 303.50711,134 303.50711,134 L305.347823,134 L305.347823,120.965873 C305.469036,120.97438 305.591115,120.978633 305.715792,120.978633 C305.839603,120.978633 305.962548,120.97438 306.083762,120.965873 L306.083762,134 L307.924475,134 C307.924475,134 309.765188,121.702562 309.765188,118.084618 L309.765188,111.574359 L312.856131,111.574359 L313.499428,116.371347 C313.140117,116.719275 312.8873,117.126751 312.776477,117.569956 L310.34961,126.468925 C310.329696,126.542084 310.317575,126.619496 310.317575,126.69946 C310.317575,127.197958 310.729701,127.602882 311.237931,127.602882 C311.746162,127.602882 312.158288,127.197958 312.158288,126.69946 C312.158288,127.197958 312.570414,127.602882 313.078644,127.602882 C313.586875,127.602882 313.999001,127.197958 313.999001,126.69946 C313.999001,127.197958 314.411127,127.602882 314.919358,127.602882 C315.427588,127.602882 315.839714,127.197958 315.839714,126.69946 C315.839714,127.197958 316.25184,127.602882 316.760071,127.602882 C317.268301,127.602882 317.680427,127.197958 317.680427,126.69946 C317.680427,127.197958 318.092553,127.602882 318.600784,127.602882 C319.109014,127.602882 319.52114,127.197958 319.52114,126.69946 C319.52114,127.197958 319.933266,127.602882 320.441497,127.602882 C320.949727,127.602882 321.361853,127.197958 321.361853,126.69946 C321.361853,127.197958 321.773979,127.602882 322.28221,127.602882 C322.790441,127.602882 323.202566,127.197958 323.202566,126.69946 C323.202566,126.619496 323.191311,126.542084 323.171397,126.468925 L320.74453,117.569956 C320.632841,117.126751 320.380024,116.719275 320.021579,116.371347 L320.360976,113.83717 L324.299548,120.514161 L324.299548,120.514161 Z M313.753977,128.326811 L316.392101,128.326811 L316.392101,134 L314.551388,134 C314.551388,134 314.169566,131.447108 313.753977,128.326811 L313.753977,128.326811 Z M317.12804,128.326811 L319.76703,128.326811 C319.351441,131.447108 318.968753,134 318.968753,134 L317.12804,134 L317.12804,128.326811 L317.12804,128.326811 Z M316.392101,105.78718 C316.595567,105.78718 316.760071,105.948809 316.760071,106.148719 C316.760071,105.948809 316.92544,105.78718 317.12804,105.78718 C317.331506,105.78718 317.49601,105.948809 317.49601,106.148719 C317.49601,106.547688 317.167002,106.871797 316.760071,106.871797 C316.35314,106.871797 316.024132,106.547688 316.024132,106.148719 C316.024132,105.948809 316.188636,105.78718 316.392101,105.78718 L316.392101,105.78718 Z M313.893372,105.753153 C314.376494,106.83777 315.477805,107.595727 316.760071,107.595727 C318.420695,107.595727 319.778286,106.323959 319.882183,104.717874 C320.598208,104.1879 320.8086,103.114341 320.332405,102.172638 C319.811187,101.144165 318.669183,100.660979 317.760082,101.073559 C317.465706,100.638861 316.950549,100.180344 316.090799,100.180344 C312.710675,100.180344 313.078644,105.063251 311.606767,105.063251 C312.098547,105.510709 312.754831,105.78718 313.478649,105.78718 C313.619776,105.78718 313.758306,105.773569 313.893372,105.753153 L313.893372,105.753153 Z" id="group" sketch:type="MSShapeGroup"/>
        </g>
    </g>
</svg>