<?xml version="1.0" encoding="UTF-8" standalone="no"?>
<svg width="44px" height="34px" viewBox="0 0 44 34" version="1.1" xmlns="http://www.w3.org/2000/svg" xmlns:xlink="http://www.w3.org/1999/xlink" xmlns:sketch="http://www.bohemiancoding.com/sketch/ns">
    <!-- Generator: Sketch 3.2.2 (9983) - http://www.bohemiancoding.com/sketch -->
    <title>laptop_multimedia</title>
    <desc>Created with Sketch.</desc>
    <defs/>
    <g id="Page-1" stroke="none" stroke-width="1" fill="none" fill-rule="evenodd" sketch:type="MSPage">
        <g id="technology" sketch:type="MSArtboardGroup" transform="translate(-313.000000, 0.000000)" fill="#FFAA33">
            <path d="M333.240269,17.4362129 L333.240269,11.3333333 L338.519979,14.3842605 L333.240269,17.4362129 L333.240269,17.4362129 Z M334.999483,8.71810644 C331.841177,8.71810644 329.279969,11.2554199 329.279969,14.3842605 C329.279969,17.5141263 331.841177,20.0514398 334.999483,20.0514398 C338.158823,20.0514398 340.720031,17.5141263 340.720031,14.3842605 C340.720031,11.2554199 338.158823,8.71810644 334.999483,8.71810644 L334.999483,8.71810644 Z M357,29.6409468 L357,30.5133725 C357,32.4386552 355.424986,34 353.480538,34 L316.519462,34 C314.576048,34 313,32.4386552 313,30.5133725 L313,29.6409468 L357,29.6409468 L357,29.6409468 Z M318.27971,3.48765265 L351.72029,3.48765265 L351.72029,25.2829187 L318.27971,25.2829187 L318.27971,3.48765265 Z M318.27971,28.7695462 L351.72029,28.7695462 C353.664738,28.7695462 355.240786,27.2082014 355.240786,25.2818936 L355.240786,3.48765265 C355.240786,1.56134479 353.664738,0 351.72029,0 L318.27971,0 C316.335262,0 314.759214,1.56134479 314.759214,3.48765265 L314.759214,25.2818936 C314.759214,27.2082014 316.335262,28.7695462 318.27971,28.7695462 L318.27971,28.7695462 Z" id="laptop_multimedia" sketch:type="MSShapeGroup"/>
        </g>
    </g>
</svg>