<?xml version="1.0" encoding="UTF-8" standalone="no"?>
<svg width="33px" height="34px" viewBox="0 0 33 34" version="1.1" xmlns="http://www.w3.org/2000/svg" xmlns:xlink="http://www.w3.org/1999/xlink" xmlns:sketch="http://www.bohemiancoding.com/sketch/ns">
    <!-- Generator: Sketch 3.2.2 (9983) - http://www.bohemiancoding.com/sketch -->
    <title>light_bulb</title>
    <desc>Created with Sketch.</desc>
    <defs/>
    <g id="Page-1" stroke="none" stroke-width="1" fill="none" fill-rule="evenodd" sketch:type="MSPage">
        <g id="technology" sketch:type="MSArtboardGroup" transform="translate(-425.000000, 0.000000)" fill="#FFAA33">
            <path d="M453.514737,13.60831 C453.079337,11.140389 454.123723,8.75556773 456.010216,7.35719854 C453.854736,8.28992225 451.263857,8.00122206 449.342216,6.3900887 C447.419858,4.77967173 446.685345,2.28237922 447.230492,0 C446.17965,2.09827016 444.009108,3.53962201 441.5,3.53962201 C438.99161,3.53962201 436.821067,2.09827016 435.769508,0 C436.315372,2.28237922 435.580142,4.77967173 433.658501,6.3900887 C431.73686,8.00122206 429.145981,8.28992225 426.990501,7.35719854 C428.876994,8.75556773 429.92138,11.140389 429.48598,13.60831 C429.049863,16.0755146 427.251598,17.9603042 425,18.629401 C427.344846,18.488991 429.680368,19.6459409 430.934922,21.8158488 C432.189475,23.9857567 432.024497,26.5840585 430.730492,28.5419186 C432.436943,26.9293525 434.969721,26.3161332 437.327479,27.1729209 C437.397774,27.1987105 437.465917,27.2252165 437.534778,27.2524388 C437.524019,26.1191294 437.135961,25.0775163 436.494696,24.2400708 L434.242381,21.2857293 C433.060275,19.7426519 432.350867,17.8177451 432.350867,15.7237732 C432.350867,10.6768926 436.447355,6.5856598 441.5,6.5856598 C446.553363,6.5856598 450.64985,10.6768926 450.64985,15.7237732 C450.64985,17.8177451 449.940443,19.7426519 448.758336,21.2857293 L446.506021,24.2400708 C445.864757,25.0775163 445.476699,26.1191294 445.465939,27.2524388 C445.5348,27.2252165 445.602943,27.1987105 445.672521,27.1729209 C448.030279,26.3161332 450.563774,26.9293525 452.270226,28.5419186 C450.975503,26.5840585 450.811242,23.9857567 452.065796,21.8158488 C453.32035,19.6459409 455.655154,18.488991 458,18.629401 C455.748402,17.9603042 453.950137,16.0755146 453.514737,13.60831 M438.594944,20.4174796 L439.866713,18.7619308 L441.139199,20.4174796 C441.222406,20.526369 441.352237,20.5972904 441.5,20.5972904 C441.648481,20.5972904 441.778312,20.526369 441.862235,20.4174796 L443.134004,18.7619308 L444.40649,20.4174796 C444.559992,20.6180654 444.847629,20.6560334 445.047755,20.5020122 C445.247881,20.3487074 445.285897,20.0614399 445.131678,19.8615706 L443.495522,17.7317798 C443.412316,17.6228904 443.281768,17.5512526 443.134004,17.5512526 C442.986241,17.5512526 442.85641,17.6228904 442.772486,17.7317798 L441.5,19.3873285 L440.228231,17.7317798 C440.144307,17.6228904 440.014476,17.5512526 439.866713,17.5512526 C439.71895,17.5512526 439.589119,17.6228904 439.505195,17.7317798 L437.868322,19.8615706 C437.71482,20.0614399 437.752837,20.3487074 437.952963,20.5020122 C438.153806,20.6560334 438.440725,20.6180654 438.594944,20.4174796 M445.465222,28.6694339 C445.465222,28.2489202 445.123788,27.9079244 444.702734,27.9079244 L438.297983,27.9079244 C437.876929,27.9079244 437.535495,28.2489202 437.535495,28.6694339 C437.535495,29.0899475 437.876929,29.4309433 438.297983,29.4309433 C437.876929,29.4309433 437.535495,29.7719391 437.535495,30.1924528 C437.535495,30.6129664 437.876929,30.9539622 438.297983,30.9539622 C437.876929,30.9539622 437.535495,31.294958 437.535495,31.7154717 C437.535495,32.1359853 437.876929,32.4769811 438.297983,32.4769811 L439.094901,32.4769811 L439.975025,34 L443.024975,34 L443.905817,32.4769811 L444.702734,32.4769811 C445.123788,32.4769811 445.465222,32.1359853 445.465222,31.7154717 C445.465222,31.294958 445.123788,30.9539622 444.702734,30.9539622 C445.123788,30.9539622 445.465222,30.6129664 445.465222,30.1924528 C445.465222,29.7719391 445.123788,29.4309433 444.702734,29.4309433 C445.123788,29.4309433 445.465222,29.0899475 445.465222,28.6694339" id="light_bulb" sketch:type="MSShapeGroup"/>
        </g>
    </g>
</svg>