<?xml version="1.0" encoding="UTF-8" standalone="no"?>
<svg width="41px" height="34px" viewBox="0 0 41 34" version="1.1" xmlns="http://www.w3.org/2000/svg" xmlns:xlink="http://www.w3.org/1999/xlink" xmlns:sketch="http://www.bohemiancoding.com/sketch/ns">
    <!-- Generator: Sketch 3.2.2 (9983) - http://www.bohemiancoding.com/sketch -->
    <title>monitor-with-grouped-lines</title>
    <desc>Created with Sketch.</desc>
    <defs/>
    <g id="Page-1" stroke="none" stroke-width="1" fill="none" fill-rule="evenodd" sketch:type="MSPage">
        <g id="technology" sketch:type="MSArtboardGroup" transform="translate(-617.000000, -100.000000)" fill="#FFAA33">
            <path d="M642.651282,130.302115 L642.230769,128.761329 L632.769231,128.761329 L632.664103,130.302115 C632.664103,131.226586 631.928205,131.945619 630.982051,131.945619 L629.510256,131.945619 L629.510256,134 L645.279487,134 L645.279487,131.945619 L644.123077,131.945619 C643.387179,131.8429 642.651282,131.123867 642.651282,130.302115 L642.651282,130.302115 Z M654.846154,124.652568 L620.153846,124.652568 L620.153846,103.081571 L654.846154,103.081571 L654.846154,124.652568 L654.846154,124.652568 Z M654.951282,100 L620.258974,100 C618.471795,100 617,101.438066 617,103.18429 L617,124.960725 C617,126.706949 618.366667,127.63142 620.153846,127.63142 L654.846154,127.63142 C656.633333,127.63142 658,126.296073 658,124.549849 L658,102.978852 C658,101.335347 656.84359,100 654.951282,100 Z M623.307692,106.163142 L651.692308,106.163142 L651.692308,108.217523 L623.307692,108.217523 L623.307692,106.163142 Z M623.307692,109.244713 L651.692308,109.244713 L651.692308,110.271903 L623.307692,110.271903 L623.307692,109.244713 Z M623.307692,111.299094 L651.692308,111.299094 L651.692308,112.326284 L623.307692,112.326284 L623.307692,111.299094 Z M623.307692,115.407855 L651.692308,115.407855 L651.692308,117.462236 L623.307692,117.462236 L623.307692,115.407855 Z M623.307692,118.489426 L651.692308,118.489426 L651.692308,119.516616 L623.307692,119.516616 L623.307692,118.489426 Z M623.307692,120.543807 L651.692308,120.543807 L651.692308,121.570997 L623.307692,121.570997 L623.307692,120.543807 Z" id="monitor-with-grouped-lines" sketch:type="MSShapeGroup"/>
        </g>
    </g>
</svg>