<?xml version="1.0" encoding="UTF-8" standalone="no"?>
<svg width="26px" height="34px" viewBox="0 0 26 34" version="1.1" xmlns="http://www.w3.org/2000/svg" xmlns:xlink="http://www.w3.org/1999/xlink" xmlns:sketch="http://www.bohemiancoding.com/sketch/ns">
    <!-- Generator: Sketch 3.2.2 (9983) - http://www.bohemiancoding.com/sketch -->
    <title>newspaper</title>
    <desc>Created with Sketch.</desc>
    <defs/>
    <g id="Page-1" stroke="none" stroke-width="1" fill="none" fill-rule="evenodd" sketch:type="MSPage">
        <g id="everyday" sketch:type="MSArtboardGroup" transform="translate(-100.000000, -200.000000)" fill="#FFAA33">
            <path d="M102.363468,206.876011 L108.666358,206.876011 L108.666358,208.022462 L102.363468,208.022462 L102.363468,206.876011 Z M102.363468,209.168014 L108.666358,209.168014 L108.666358,210.314465 L102.363468,210.314465 L102.363468,209.168014 Z M102.363468,211.460018 L108.666358,211.460018 L108.666358,212.606469 L102.363468,212.606469 L102.363468,211.460018 Z M102.363468,213.752022 L108.666358,213.752022 L108.666358,214.898473 L102.363468,214.898473 L102.363468,213.752022 Z M102.363468,216.044025 L108.666358,216.044025 L108.666358,217.190476 L102.363468,217.190476 L102.363468,216.044025 Z M117.332716,218.336927 L123.635606,218.336927 L123.635606,219.483378 L117.332716,219.483378 L117.332716,218.336927 Z M109.848555,218.336927 L116.151445,218.336927 L116.151445,219.483378 L109.848555,219.483378 L109.848555,218.336927 Z M118.121156,229.415993 C118.121156,228.150045 119.179204,227.123989 120.484624,227.123989 C121.790044,227.123989 122.848092,228.150045 122.848092,229.415993 L122.848092,230.179695 L118.121156,230.179695 L118.121156,229.415993 L118.121156,229.415993 Z M120.484624,222.539084 C121.572319,222.539084 122.454335,223.394429 122.454335,224.449236 C122.454335,225.504043 121.572319,226.359389 120.484624,226.359389 C119.396928,226.359389 118.514913,225.504043 118.514913,224.449236 C118.514913,223.394429 119.396928,222.539084 120.484624,222.539084 L120.484624,222.539084 Z M117.332716,230.943396 L123.635606,230.943396 L123.635606,220.628931 L117.332716,220.628931 L117.332716,230.943396 Z M109.848555,220.628931 L116.151445,220.628931 L116.151445,221.775382 L109.848555,221.775382 L109.848555,220.628931 Z M102.363468,218.336927 L108.666358,218.336927 L108.666358,219.483378 L102.363468,219.483378 L102.363468,218.336927 Z M102.363468,222.920934 L116.151445,222.920934 L116.151445,230.943396 L102.363468,230.943396 L102.363468,222.920934 Z M102.363468,220.628931 L108.666358,220.628931 L108.666358,221.775382 L102.363468,221.775382 L102.363468,220.628931 Z M116.151445,209.550764 L116.151445,201.145553 L124.817803,209.550764 L116.151445,209.550764 L116.151445,209.550764 Z M124.817803,232.854447 L101.181271,232.854447 L101.181271,201.145553 L115.363005,201.145553 L115.363005,203.055705 L102.363468,203.055705 L102.363468,204.965858 L115.363005,204.965858 L115.363005,206.876011 L109.848555,206.876011 L109.848555,217.190476 L123.635606,217.190476 L123.635606,210.314465 L124.817803,210.314465 L124.817803,232.854447 L124.817803,232.854447 Z M124.817803,201.910153 L124.817803,208.469901 L118.053522,201.910153 L124.817803,201.910153 L124.817803,201.910153 Z M116.871325,200.763702 L116.083811,200 L100,200 L100,234 L126,234 L126,200.763702 L116.871325,200.763702 L116.871325,200.763702 Z" id="newspaper" sketch:type="MSShapeGroup"/>
        </g>
    </g>
</svg>