<?xml version="1.0" encoding="UTF-8" standalone="no"?>
<svg width="48px" height="34px" viewBox="0 0 48 34" version="1.1" xmlns="http://www.w3.org/2000/svg" xmlns:xlink="http://www.w3.org/1999/xlink" xmlns:sketch="http://www.bohemiancoding.com/sketch/ns">
    <!-- Generator: Sketch 3.2.2 (9983) - http://www.bohemiancoding.com/sketch -->
    <title>pen_2</title>
    <desc>Created with Sketch.</desc>
    <defs/>
    <g id="Page-1" stroke="none" stroke-width="1" fill="none" fill-rule="evenodd" sketch:type="MSPage">
        <g id="everyday" sketch:type="MSArtboardGroup" transform="translate(-300.000000, -200.000000)" fill="#FFAA33">
            <path d="M316.157,226.787744 C316.157,225.976744 315.832,225.242744 315.307,224.706744 C314.782,225.242744 314.457,225.976744 314.457,226.787744 C314.457,227.597744 314.782,228.331744 315.307,228.868744 C315.832,228.331744 316.157,227.597744 316.157,226.787744 M324.158,231.880744 L324.74,233.478744 C323.787,233.825744 322.758,234.015744 321.685,234.015744 C319.219,234.015744 316.987,233.016744 315.371,231.400744 L315.307,231.336744 L315.243,231.400744 C313.627,233.016744 311.395,234.015744 308.929,234.015744 C303.998,234.015744 300,230.017744 300,225.086744 C300,220.155744 303.998,216.157744 308.929,216.157744 L308.929,217.858744 C304.937,217.858744 301.701,221.094744 301.701,225.086744 C301.701,229.078744 304.937,232.314744 308.929,232.314744 C310.925,232.314744 312.732,231.505744 314.04,230.197744 L314.135,230.103744 L314.126,230.094744 C313.279,229.248744 312.756,228.078744 312.756,226.787744 C312.756,225.167744 313.583,223.744744 314.832,222.903744 C314.968,222.811744 315.131,222.756744 315.307,222.756744 C315.483,222.756744 315.646,222.811744 315.781,222.903744 C317.031,223.744744 317.858,225.167744 317.858,226.787744 C317.858,228.078744 317.335,229.248744 316.488,230.094744 L316.479,230.103744 L316.574,230.197744 C317.882,231.505744 319.689,232.314744 321.685,232.314744 C322.554,232.314744 323.386,232.161744 324.158,231.880744 M344.675,216.510744 L342.337,220.561744 C341.867,221.374744 340.826,221.653744 340.013,221.183744 C339.199,220.713744 338.921,219.673744 339.39,218.860744 C339.86,218.046744 340.9,217.768744 341.714,218.237744 L343.627,214.923744 C345.036,212.483744 345.519,210.123744 344.705,209.654744 L343.928,209.205744 C343.677,209.699744 343.408,210.200744 343.118,210.702744 L334.189,226.167744 C331.372,231.048744 327.768,234.243744 326.141,233.304744 C324.514,232.365744 325.48,227.647744 328.298,222.766744 L337.227,207.300744 C340.045,202.419744 343.648,199.224744 345.275,200.163744 C346.261,200.732744 346.294,202.689744 345.541,205.226744 L346.832,205.972744 C348.459,206.911744 347.493,211.629744 344.675,216.510744" id="pen_2" sketch:type="MSShapeGroup"/>
        </g>
    </g>
</svg>