<?xml version="1.0" encoding="UTF-8" standalone="no"?>
<svg width="27px" height="34px" viewBox="0 0 27 34" version="1.1" xmlns="http://www.w3.org/2000/svg" xmlns:xlink="http://www.w3.org/1999/xlink" xmlns:sketch="http://www.bohemiancoding.com/sketch/ns">
    <!-- Generator: Sketch 3.2.2 (9983) - http://www.bohemiancoding.com/sketch -->
    <title>group_2</title>
    <desc>Created with Sketch.</desc>
    <defs/>
    <g id="Page-1" stroke="none" stroke-width="1" fill="none" fill-rule="evenodd" sketch:type="MSPage">
        <g id="people" sketch:type="MSArtboardGroup" transform="translate(-398.000000, -100.000000)" fill="#FFAA33">
            <path d="M421.72161,108.689244 L417.478934,108.689244 C417.345585,108.689244 417.214051,108.698129 417.085237,108.713233 C417.457163,109.312062 417.671247,110.015731 417.671247,110.766489 L417.671247,118.888889 C417.671247,119.883088 417.118801,120.764451 416.253393,121.217571 C416.214387,121.598725 416.172658,121.993206 416.129116,122.396572 L416.129116,134 L419.214286,134 L419.214286,120.764451 C419.341285,120.773335 419.470098,120.777778 419.599819,120.777778 C419.730446,120.777778 419.858352,120.773335 419.985351,120.764451 L419.985351,134 L421.913923,134 C421.913923,134 423.126764,125.924689 423.629317,120.696927 C424.422154,120.462371 425,119.741821 425,118.888889 L425,111.900178 C425,110.12679 423.532254,108.689244 421.72161,108.689244 M419.599819,107.555556 C421.410462,107.555556 422.878209,106.11801 422.878209,104.344622 C422.878209,102.571234 421.410462,101.133689 419.599819,101.133689 C417.789175,101.133689 416.321429,102.571234 416.321429,104.344622 C416.321429,106.11801 417.789175,107.555556 419.599819,107.555556 M405.328753,118.888889 L405.328753,110.766489 C405.328753,110.015731 405.542837,109.312062 405.914763,108.713233 C405.785949,108.698129 405.655322,108.689244 405.521973,108.689244 L401.279297,108.689244 C399.468653,108.689244 398,110.12679 398,111.900178 L398.000907,118.888889 C398.000907,119.741821 398.578753,120.462371 399.37159,120.696927 C399.873236,125.924689 401.086077,134 401.086077,134 L403.014649,134 L403.014649,120.764451 C403.141648,120.773335 403.270461,120.777778 403.400181,120.777778 C403.530809,120.777778 403.658715,120.773335 403.786621,120.764451 L403.786621,134 L406.871791,134 L406.871791,122.396572 C406.827342,121.993206 406.785613,121.598725 406.747514,121.217571 C405.881199,120.764451 405.328753,119.883088 405.328753,118.888889 M416.900181,118.888889 L416.900181,110.766489 C416.900181,108.993101 415.432435,107.555556 413.621791,107.555556 L409.379116,107.555556 C407.568472,107.555556 406.099819,108.993101 406.099819,110.766489 L406.099819,118.888889 C406.099819,119.741821 406.677664,120.462371 407.471408,120.696927 C407.973055,125.924689 409.185896,134 409.185896,134 L411.114467,134 L411.114467,120.386851 C411.241466,120.394847 411.37028,120.400178 411.5,120.400178 C411.62972,120.400178 411.758534,120.394847 411.885533,120.386851 L411.885533,134 L413.814104,134 C413.814104,134 415.026945,125.924689 415.528592,120.696927 C416.322336,120.462371 416.900181,119.741821 416.900181,118.888889 M411.5,106.422755 C413.310644,106.422755 414.77839,104.98521 414.77839,103.210933 C414.77839,101.437546 413.310644,100 411.5,100 C409.689356,100 408.22161,101.437546 408.22161,103.210933 C408.22161,104.98521 409.689356,106.422755 411.5,106.422755 M400.121791,104.344622 C400.121791,102.571234 401.589538,101.133689 403.400181,101.133689 C405.210825,101.133689 406.678571,102.571234 406.678571,104.344622 C406.678571,106.11801 405.210825,107.555556 403.400181,107.555556 C401.589538,107.555556 400.121791,106.11801 400.121791,104.344622" id="group_2" sketch:type="MSShapeGroup"/>
        </g>
    </g>
</svg>