<?xml version="1.0" encoding="UTF-8" standalone="no"?>
<svg width="29px" height="34px" viewBox="0 0 29 34" version="1.1" xmlns="http://www.w3.org/2000/svg" xmlns:xlink="http://www.w3.org/1999/xlink" xmlns:sketch="http://www.bohemiancoding.com/sketch/ns">
    <!-- Generator: Sketch 3.2.2 (9983) - http://www.bohemiancoding.com/sketch -->
    <title>reception</title>
    <desc>Created with Sketch.</desc>
    <defs/>
    <g id="Page-1" stroke="none" stroke-width="1" fill="none" fill-rule="evenodd" sketch:type="MSPage">
        <g id="people" sketch:type="MSArtboardGroup" transform="translate(-100.000000, -300.000000)" fill="#FFAA33">
            <path d="M108.786188,316.149875 L110.546112,313.938851 L110.546112,316.149875 L119.333333,316.149875 L119.333333,312.529472 L123.45877,313.883875 C123.646853,313.945847 123.846305,313.982831 124.058157,313.982831 C125.089516,313.982831 125.924524,313.174188 125.924524,312.176628 C125.924524,311.930736 125.87492,311.697839 125.781911,311.484933 L123.803934,306.863972 C123.532143,306.228252 122.97616,305.789446 122.336469,305.625518 C122.516285,305.256681 122.670266,304.85086 122.791177,304.416052 C123.356461,302.375952 122.958592,300.49978 121.903464,300.2269 L121.267907,300.061973 C121.033319,300.001 120.792531,300.13594 120.729492,300.36184 L120.274784,302.004116 C120.210712,302.231016 120.351258,302.463913 120.584812,302.524886 L121.434288,302.744789 L120.752227,305.207702 L119.902751,304.9878 C119.669197,304.927826 119.427375,305.061767 119.36537,305.288667 L118.908595,306.930942 C118.84659,307.157842 118.986102,307.390739 119.22069,307.451712 L119.85728,307.61664 C120.320255,307.736587 120.832834,307.527679 121.309244,307.082875 C121.534531,307.899515 121.828024,308.968044 122.102915,309.962605 L119.992659,308.784125 C119.67023,308.603204 119.295097,308.49925 118.895161,308.49925 L110.985318,308.49925 C110.172012,308.49925 109.464115,308.928061 109.084848,309.562781 L106.601525,313.720947 L103.460944,313.919859 C102.260103,313.995825 101.350688,314.991386 101.412693,316.149875 L108.786188,316.149875 L108.786188,316.149875 Z M100,317.0005 L100,330.6005 L101.318652,330.6005 L101.318652,334 L127.683415,334 L127.683415,330.6005 L129,330.6005 L129,317.0005 L100,317.0005 L100,317.0005 Z M115.818652,305.524563 C115.818652,305.994355 115.42595,306.375187 114.940239,306.375187 C114.454529,306.375187 114.061827,305.994355 114.061827,305.524563 L115.818652,305.524563 L115.818652,305.524563 Z M114.940239,307.224813 C117.002958,307.224813 118.674008,305.607526 118.674008,303.612406 C118.674008,301.617286 117.002958,300 114.940239,300 C112.877521,300 111.205438,301.617286 111.205438,303.612406 C111.205438,305.607526 112.877521,307.224813 114.940239,307.224813 L114.940239,307.224813 Z" id="reception" sketch:type="MSShapeGroup"/>
        </g>
    </g>
</svg>