<?xml version="1.0" encoding="UTF-8" standalone="no"?>
<svg width="18px" height="34px" viewBox="0 0 18 34" version="1.1" xmlns="http://www.w3.org/2000/svg" xmlns:xlink="http://www.w3.org/1999/xlink" xmlns:sketch="http://www.bohemiancoding.com/sketch/ns">
    <!-- Generator: Sketch 3.2.2 (9983) - http://www.bohemiancoding.com/sketch -->
    <title>rocket</title>
    <desc>Created with Sketch.</desc>
    <defs/>
    <g id="Page-1" stroke="none" stroke-width="1" fill="none" fill-rule="evenodd" sketch:type="MSPage">
        <g id="traffic" sketch:type="MSArtboardGroup" transform="translate(-700.000000, -100.000000)" fill="#FFAA33">
            <path d="M710.861893,129.054691 C710.861893,131.526982 709,134 709,134 C709,134 707.138107,131.526982 707.138107,129.054691 C707.138107,128.030446 707.971616,127.199564 709,127.199564 C710.028384,127.199564 710.861893,128.030446 710.861893,129.054691 L710.861893,129.054691 Z M718,124.192979 L715.206796,130.909091 L713.965291,130.909091 L712.872679,126.848456 C713.599627,124.876294 714.141189,122.816172 714.481307,120.688446 L718,124.192979 L718,124.192979 Z M703.518693,120.688446 C703.858811,122.816172 704.400373,124.876294 705.127321,126.848456 L704.034709,130.909091 L702.793204,130.909091 L700,124.192979 L703.518693,120.688446 L703.518693,120.688446 Z M709,115.1456 C707.800097,115.1456 706.827913,114.176601 706.827913,112.981527 C706.827913,111.786453 707.800097,110.818182 709,110.818182 C710.199903,110.818182 711.172087,111.786453 711.172087,112.981527 C711.172087,114.176601 710.199903,115.1456 709,115.1456 L709,115.1456 Z M709,100 C705.692239,104.27726 703.724515,109.638373 703.724515,115.454545 C703.724515,119.363978 704.41935,123.111306 705.691509,126.581673 L712.308491,126.581673 C713.58065,123.111306 714.275485,119.363978 714.275485,115.454545 C714.275485,109.638373 712.307761,104.27726 709,100 L709,100 Z" id="rocket" sketch:type="MSShapeGroup"/>
        </g>
    </g>
</svg>